<?xml version="1.0" standalone="no"?>
<!DOCTYPE svg PUBLIC "-//W3C//DTD SVG 20010904//EN"
 "http://www.w3.org/TR/2001/REC-SVG-20010904/DTD/svg10.dtd">
<svg version="1.0" xmlns="http://www.w3.org/2000/svg"
 width="1024.000000pt" height="1024.000000pt" viewBox="0 0 1024.000000 1024.000000"
 preserveAspectRatio="xMidYMid meet">
<metadata>
Created by potrace 1.16, written by Peter Selinger 2001-2019
</metadata>
<g transform="translate(0.000000,1024.000000) scale(0.100000,-0.100000)"
fill="#000000" stroke="none">
<path d="M5040 7233 c-318 -31 -604 -107 -841 -223 -77 -38 -267 -163 -360
-237 -223 -178 -402 -393 -548 -660 -186 -338 -291 -776 -262 -1093 25 -270
98 -525 221 -769 81 -163 125 -232 235 -371 158 -200 292 -323 505 -465 288
-192 596 -302 953 -341 582 -64 1219 167 1648 595 328 329 516 674 608 1116
53 254 57 376 20 604 -72 452 -307 915 -630 1241 -217 219 -572 430 -864 513
-235 67 -528 106 -685 90z m125 -128 c48 -47 20 -155 -40 -155 -60 0 -88 108
-40 155 13 14 31 25 40 25 9 0 27 -11 40 -25z m179 -255 c347 -33 625 -156
915 -406 237 -203 395 -428 510 -723 96 -247 126 -584 77 -876 -87 -512 -458
-1005 -941 -1248 -533 -268 -1120 -247 -1630 59 -152 91 -239 158 -377 292
-249 242 -417 562 -469 895 -26 169 -28 449 -4 597 28 173 121 431 208 574
111 183 300 389 484 527 176 133 472 258 688 293 167 27 363 32 539 16z
m-1329 -105 c48 -47 20 -155 -40 -155 -60 0 -88 108 -40 155 13 14 31 25 40
25 9 0 27 -11 40 -25z m2390 0 c48 -47 20 -155 -40 -155 -60 0 -88 108 -40
155 13 14 31 25 40 25 9 0 27 -11 40 -25z m-3140 -1490 c48 -47 20 -155 -40
-155 -60 0 -88 108 -40 155 13 14 31 25 40 25 9 0 27 -11 40 -25z m3810 0 c48
-47 20 -155 -40 -155 -60 0 -88 108 -40 155 13 14 31 25 40 25 9 0 27 -11 40
-25z m-3060 -1470 c48 -47 20 -155 -40 -155 -60 0 -88 108 -40 155 13 14 31
25 40 25 9 0 27 -11 40 -25z m2390 0 c48 -47 20 -155 -40 -155 -60 0 -88 108
-40 155 13 14 31 25 40 25 9 0 27 -11 40 -25z m-1220 -480 c48 -47 20 -155
-40 -155 -60 0 -88 108 -40 155 13 14 31 25 40 25 9 0 27 -11 40 -25z"/>
<path d="M4995 6703 c-460 -57 -658 -144 -935 -409 -129 -124 -269 -308 -322
-423 -124 -265 -167 -428 -175 -651 -10 -299 35 -513 163 -775 127 -260 344
-497 594 -647 218 -132 398 -193 665 -229 244 -32 631 35 830 145 121 66 248
150 319 208 197 164 287 277 407 514 110 217 151 365 169 610 22 287 -22 502
-161 789 -61 128 -106 195 -217 325 -158 185 -315 310 -508 406 -117 58 -148
69 -274 94 -220 45 -419 60 -555 43z m319 -149 c38 -6 50 -12 61 -34 18 -34
22 -30 -120 -104 l-111 -57 -104 47 c-125 55 -160 75 -160 90 0 19 39 47 78
54 48 10 295 12 356 4z m451 -74 c104 -52 310 -199 310 -222 0 -7 -13 -14 -30
-16 -23 -2 -59 14 -147 66 -63 39 -157 91 -207 117 -92 47 -131 82 -131 116 0
17 3 17 53 3 28 -8 97 -37 152 -64z m-1067 43 c-2 -22 -18 -38 -68 -71 -36
-24 -87 -55 -115 -69 -27 -14 -77 -45 -110 -68 -33 -23 -74 -50 -92 -59 -34
-17 -133 -22 -133 -7 0 15 89 90 162 137 87 56 196 111 278 140 83 29 82 29
78 -3z m857 -181 c17 -10 64 -37 106 -60 42 -23 121 -68 175 -100 l99 -58 8
-119 c4 -66 6 -149 5 -184 l-3 -64 -180 -97 c-99 -53 -190 -102 -202 -110 -19
-12 -34 -6 -175 74 -84 49 -160 94 -168 101 -13 11 -16 55 -18 257 l-3 243 92
40 c51 22 118 52 148 67 68 32 78 33 116 10z m-719 -17 c38 -14 104 -42 147
-62 l77 -37 0 -171 c0 -93 3 -206 6 -250 l7 -81 -64 -33 c-64 -34 -135 -77
-217 -132 -23 -16 -45 -29 -49 -29 -3 0 -58 31 -122 69 -64 37 -156 91 -205
118 l-90 50 3 154 c2 183 7 219 30 219 9 0 52 20 96 43 153 82 270 148 280
158 13 13 26 12 101 -16z m1381 -259 c48 -46 135 -267 150 -381 3 -22 10 -46
16 -53 20 -25 -4 -25 -31 1 -15 14 -74 52 -132 84 l-105 59 -3 157 -3 158 48
-6 c27 -4 53 -12 60 -19z m-2041 -12 c-3 -9 -6 -78 -6 -154 l0 -138 -35 -12
c-19 -6 -78 -40 -131 -76 l-96 -64 -39 22 c-22 12 -39 29 -39 39 0 9 20 64 44
122 44 107 87 169 166 241 35 31 46 36 91 36 43 0 50 -3 45 -16z m295 -526
c163 -98 188 -116 193 -141 3 -16 6 -107 6 -203 l0 -173 -47 -27 c-74 -42
-214 -125 -253 -150 -19 -12 -53 -32 -75 -44 l-40 -23 -136 82 c-75 44 -142
87 -148 94 -7 9 -13 104 -18 264 l-6 251 41 27 c117 77 269 163 281 159 8 -2
99 -55 202 -116z m1765 -3 l81 -53 6 -68 c9 -94 8 -446 -1 -460 -4 -6 -23 -19
-42 -29 -19 -10 -83 -46 -141 -81 -59 -35 -113 -64 -120 -64 -7 0 -51 26 -99
58 -47 31 -139 89 -203 127 l-116 70 -1 197 0 198 34 14 c19 8 102 53 183 99
228 131 197 121 273 80 36 -20 101 -59 146 -88z m-943 -26 c84 -50 153 -92
155 -94 2 -2 0 -18 -3 -36 l-6 -34 -167 3 -167 4 -72 -89 c-39 -48 -100 -116
-135 -151 l-64 -63 4 113 c2 62 0 143 -5 180 l-10 68 71 41 c39 23 82 49 95
58 31 21 145 91 149 91 1 0 71 -41 155 -91z m-1476 -141 c-3 -43 -1 -153 3
-245 9 -162 8 -167 -12 -181 -11 -8 -32 -28 -46 -43 -14 -16 -29 -29 -33 -29
-32 0 -47 373 -20 530 20 120 16 115 68 78 l45 -33 -5 -77z m2728 115 c23 -94
34 -272 25 -421 -5 -85 -14 -160 -19 -165 -5 -5 -24 4 -47 25 l-37 35 0 247 1
247 28 30 c34 36 40 36 49 2z m-951 -605 c24 -18 115 -78 200 -132 l156 -99 0
-136 c0 -75 -3 -160 -6 -188 -7 -52 -8 -54 -71 -94 -35 -22 -125 -72 -199
-111 -158 -82 -124 -86 -329 35 l-140 83 -3 241 -2 242 22 6 c13 4 61 31 108
60 165 101 205 124 212 125 4 0 28 -15 52 -32z m-810 -1 c17 -13 58 -39 91
-57 33 -19 88 -52 123 -75 l62 -42 2 -237 2 -238 -110 -57 c-60 -31 -128 -69
-151 -84 -24 -15 -50 -27 -59 -27 -17 0 -190 88 -329 167 -83 48 -80 39 -89
269 l-7 161 203 121 c112 67 209 122 217 122 8 0 28 -10 45 -23z m1648 -105
l50 -48 -7 -64 c-6 -50 -22 -92 -79 -204 l-71 -141 -100 0 -100 0 -5 170 c-3
116 -1 174 6 183 12 15 234 151 247 152 5 0 31 -22 59 -48z m-2424 -23 c178
-105 181 -109 142 -144 -27 -24 -77 -15 -216 40 -61 25 -116 45 -122 45 -24 0
-11 25 36 67 26 23 53 42 60 43 7 0 52 -23 100 -51z m2106 -607 l48 -7 -83
-80 c-92 -88 -215 -168 -343 -222 -97 -42 -174 -68 -180 -62 -4 4 21 150 27
154 1 2 61 33 132 71 72 37 166 90 210 116 63 37 87 46 110 42 17 -3 52 -8 79
-12z m-1663 -86 c246 -133 231 -121 250 -191 10 -33 20 -70 24 -82 l7 -23 -53
19 c-171 59 -382 184 -493 292 l-81 78 86 1 85 0 175 -94z m790 -34 c57 -37
116 -73 132 -80 15 -6 27 -18 27 -27 0 -19 7 -20 -140 16 l-127 31 -102 -36
c-112 -39 -161 -45 -181 -20 -11 12 -10 18 4 32 19 19 255 150 272 151 6 1 58
-29 115 -67z"/>
</g>
</svg>
